<svg xmlns="http://www.w3.org/2000/svg" width="243" height="156" viewBox="0 0 243 156">
    <defs>
        <linearGradient id="a" x1="25.559%" x2="80.702%" y1="113.049%" y2="11.897%">
            <stop offset="0%" stop-color="#FFF"/>
            <stop offset="100%" stop-color="#E8E4FF"/>
        </linearGradient>
    </defs>
    <path fill="url(#a)" fill-rule="evenodd" d="M328.04 0c-30.879.01-61.376 9.239-85.544 29.595-21.59 18.184-35.918 44.608-56.103 64.46-22.913 22.535-52.78 33.41-82.292 42.462-20.82 6.387-41.583 14.033-59.661 26.661-65.638 45.85-43.717 123.74-27.198 190.507l414.598 1.61 9.937-20.58c25.247-52.287 55.935-97.33 53.245-158.779-2.477-56.605-26.54-111.687-71.227-144.727C396.833 11.273 362.27.012 328.153 0h-.113z" opacity=".196" transform="translate(-49 -4)"/>
</svg>
