<svg xmlns="http://www.w3.org/2000/svg" xmlns:xlink="http://www.w3.org/1999/xlink" width="16" height="11" viewBox="0 0 16 11">
    <defs>
        <rect id="a" width="16" height="11" rx="1"/>
    </defs>
    <g fill="none" fill-rule="evenodd">
        <mask id="b" fill="#fff">
            <use xlink:href="#a"/>
        </mask>
        <use fill="#FFF" xlink:href="#a"/>
        <path fill="#B22234" d="M0 0h16v11H0z" mask="url(#b)"/>
        <g mask="url(#b)">
            <path fill="#3C3B6E" d="M0 0h7v7H0z"/>
            <path fill="#FFF" d="M1 1h1v1H1zM3 1h1v1H3zM5 1h1v1H5zM5 3h1v1H5zM3 3h1v1H3zM1 3h1v1H1zM5 5h1v1H5zM3 5h1v1H3zM1 5h1v1H1z"/>
        </g>
        <g fill="#FFF" mask="url(#b)">
            <path d="M7 1h9v1H7zM7 3h9v1H7zM7 5h9v1H7zM-3 7h19v1H-3zM-3 9h19v1H-3z"/>
        </g>
    </g>
</svg>
