<svg xmlns="http://www.w3.org/2000/svg" width="17" height="15" viewBox="0 0 17 15">
    <path d="M8.5 4.186c-1.607.063-3.245-.964-3.338-3.065L.927 2.6v3.408L2.643 5.4c.742-.249.896.078.896.669v7.982h9.921V6.069c0-.576.17-.918.897-.669l1.716.591V2.6l-4.235-1.462c-.077 2.085-1.73 3.112-3.338 3.05zm0-3.251H6.09v.062c0 1.571 1.235 2.318 2.41 2.271 1.19.063 2.41-.7 2.41-2.271V.935H8.5zM5.965 0h5.07c.278 0 .34-.016.618.078l5.022 1.742c.186.063.325.234.325.452v4.17c0 .528-.263.777-.865.575l-1.747-.607v7.733c0 .685-.139.856-.819.856H3.43c-.68 0-.818-.171-.818-.856V6.396l-1.747.607C.263 7.22 0 6.956 0 6.427V2.273c0-.218.14-.39.325-.452L5.347.08c.278-.094.34-.078.618-.078z"/>
</svg>
