<svg xmlns="http://www.w3.org/2000/svg" width="17" height="17" viewBox="0 0 17 17">
    <g fill="none" fill-rule="evenodd">
        <path d="M0 0h17v17H0z"/>
        <path stroke="#000" stroke-linecap="round" stroke-linejoin="round" stroke-width="1.2" d="M15.5 11.982v2.107a1.404 1.404 0 0 1-1.535 1.405 13.948 13.948 0 0 1-6.075-2.156 13.713 13.713 0 0 1-4.223-4.216 13.885 13.885 0 0 1-2.161-6.09 1.403 1.403 0 0 1 1.4-1.532h2.112a1.407 1.407 0 0 1 1.408 1.208c.09.675.255 1.337.493 1.974.193.514.07 1.093-.317 1.483l-.894.892a11.252 11.252 0 0 0 4.224 4.215l.894-.892c.39-.386.97-.51 1.485-.316a9.053 9.053 0 0 0 1.978.492c.708.1 1.228.712 1.21 1.426z"/>
    </g>
</svg>
