<svg xmlns="http://www.w3.org/2000/svg" width="48" height="60" viewBox="0 0 48 60">
    <g fill="none" fill-rule="evenodd">
        <path fill="#E21C40" d="M40 11v49H0V11z"/>
        <path fill="#AF0322" d="M35.812 15l-.732 40.091L5 55.825 37 57z"/>
        <path fill="#FFF" d="M36 15v41H4V15z"/>
        <path fill="#B2B2B2" fill-rule="nonzero" d="M27 36H13v2h14v-2zm0-4H13v2h14v-2zM13 42h8v-2h-8v2z"/>
        <path fill="#AF0322" d="M10 11h20v7H10z"/>
        <path fill="#AF0322" d="M15 8h10v4H15z"/>
        <path fill="#8D0019" d="M30 11l1 4h-1zM10 17l20 1v-1z"/>
        <circle cx="36" cy="12" r="12" fill="#FFF"/>
        <circle cx="36" cy="12" r="10" fill="#006CF0"/>
        <g fill="#FFF" fill-rule="nonzero">
            <path d="M41 10V8a1 1 0 0 1 2 0v3a1 1 0 0 1-1 1h-3a1 1 0 1 1 0-2h2zM31 14v2a1 1 0 0 1-2 0v-3a1 1 0 0 1 1-1h3a1 1 0 1 1 0 2h-2z"/>
            <path d="M32.314 10.661a1 1 0 1 1-1.89-.656 5.941 5.941 0 0 1 4.265-3.856 5.835 5.835 0 0 1 5.472 1.594l2.53 2.423a1 1 0 1 1-1.383 1.445l-2.553-2.445a3.85 3.85 0 0 0-3.617-1.068 3.941 3.941 0 0 0-2.824 2.563zm-3.006 3.173a1 1 0 0 1 1.384-1.445l2.553 2.445a3.85 3.85 0 0 0 3.617 1.068 3.941 3.941 0 0 0 2.824-2.563 1 1 0 1 1 1.89.656 5.941 5.941 0 0 1-4.265 3.856 5.835 5.835 0 0 1-5.472-1.594l-2.53-2.423z"/>
        </g>
    </g>
</svg>
