<svg xmlns="http://www.w3.org/2000/svg" width="20" height="15" viewBox="0 0 20 15">
    <path fill-rule="evenodd" d="M6.438 10h7.124c.156-.002.3.092.38.248.078.156.078.348 0 .504-.08.156-.224.25-.38.248H6.438c-.156.002-.3-.092-.38-.248-.078-.156-.078-.348 0-.504.08-.156.224-.25.38-.248zm0-2h7.124c.156-.002.3.092.38.248.078.156.078.348 0 .504-.08.156-.224.25-.38.248H6.438c-.156.002-.3-.092-.38-.248-.078-.156-.078-.348 0-.504.08-.156.224-.25.38-.248zM3.94.836c4.752-1.278 7.846-.94 12.118 0 .062.018.12.05.17.092.049.042.088.094.116.152l1.264 2.727c.36-.13.726-.244 1.131-.212.276.02.577.146.788.379.203.225.327.52.408.888.123.33.058.696-.102.943-.167.259-.399.424-.622.553-.135.078-.27.142-.395.195.138.31.273.665.396.996.193.52.341.964.341.964.018.052.025.108.022.164-.039.76.002 2.018-.124 2.852v3.021c0 .06-.012.118-.034.172-.023.055-.057.105-.099.146-.042.042-.093.075-.148.098-.055.022-.114.034-.174.034H16.39c-.06 0-.12-.012-.175-.034-.055-.023-.105-.056-.147-.098-.042-.041-.076-.091-.099-.146-.023-.054-.034-.113-.034-.172v-1.369c-1.724.219-3.884.283-5.932.272h-.005c-2.048.011-4.208-.053-5.932-.272v1.37c0 .058-.012.117-.035.171-.023.055-.057.105-.099.146-.042.042-.092.075-.147.098-.055.022-.115.034-.174.034H1c-.059 0-.118-.012-.173-.034-.055-.023-.106-.056-.148-.098-.042-.041-.076-.091-.098-.146-.023-.054-.035-.113-.035-.172v-3.022c-.123-.832-.083-2.09-.124-2.85-.003-.056.004-.113.022-.166 0 0 .149-.443.342-.963.123-.33.258-.685.396-.996-.125-.052-.26-.117-.395-.195-.224-.13-.455-.295-.622-.553-.16-.247-.223-.613-.1-.943.08-.368.204-.663.408-.888.21-.233.511-.358.787-.38.405-.03.772.084 1.132.213L3.656 1.08c.027-.058.067-.11.116-.152.049-.042.107-.074.17-.092zm11.665.81c-4.067-1.056-7.313-.91-11.211 0L3.044 4.56c-.024.05-.057.096-.097.135-.04.038-.087.07-.139.091-.052.022-.107.034-.163.036-.056.002-.113-.007-.165-.025-.515-.178-.958-.32-1.15-.306-.095.008-.12.018-.178.082-.059.064-.144.217-.205.509-.006.03-.015.059-.027.086-.04.094-.032.085.011.153.044.067.164.173.316.261.303.176.682.279.682.279.067.017.13.05.183.095.052.045.094.102.121.165.027.063.04.133.035.202-.004.068-.024.136-.058.195-.138.239-.382.835-.57 1.34-.14.378-.256.713-.306.859.04.835.02 2.049.113 2.683l.005.034c.005.023.024.064.111.136.097.08.27.176.504.266.468.178 1.172.329 2.005.44 1.665.22 3.854.29 5.925.278h.005c2.07.011 4.26-.058 5.925-.279.833-.11 1.537-.261 2.005-.44.234-.089.406-.186.503-.265.087-.072.106-.113.111-.136l.005-.03c.096-.633.076-1.85.113-2.687-.05-.146-.165-.48-.305-.859-.188-.505-.432-1.101-.57-1.338-.034-.06-.055-.128-.06-.196-.003-.07.009-.139.036-.202.027-.064.069-.12.121-.166.053-.045.116-.078.184-.095 0 0 .378-.103.682-.279.152-.088.272-.194.316-.262.044-.068.052-.06.012-.153-.012-.027-.02-.056-.027-.085-.06-.292-.146-.445-.204-.51-.058-.063-.084-.073-.18-.08-.19-.016-.634.127-1.148.305-.053.018-.11.027-.165.025-.056-.002-.112-.014-.163-.036-.052-.022-.1-.053-.14-.091-.04-.039-.073-.085-.096-.135l-1.351-2.914zM1.456 12.554v1.547h1.699v-1.057c-.54-.098-1.016-.217-1.415-.37-.1-.037-.194-.077-.284-.12zm17.086 0c-.09.043-.184.083-.283.12-.4.153-.876.273-1.416.37V14.1h1.7v-1.547zM16.5 8C17.323 8 18 8.676 18 9.499c0 .824-.677 1.501-1.501 1.501C15.676 11 15 10.323 15 9.499 15 8.676 15.676 8 16.499 8zm0 .874c-.348 0-.623.275-.623.625 0 .353.275.627.623.627.35 0 .625-.274.625-.627 0-.35-.275-.625-.625-.625zM3.499 8C4.323 8 5 8.676 5 9.499 5 10.323 4.323 11 3.499 11 2.675 11 2 10.322 2 9.499 2 8.677 2.675 8 3.499 8zm0 .874c-.35 0-.623.274-.623.625 0 .354.272.627.623.627.35 0 .625-.274.625-.627 0-.35-.275-.625-.625-.625z"/>
</svg>
