<svg xmlns="http://www.w3.org/2000/svg" width="84" height="80" viewBox="0 0 84 80">
    <g fill="none" fill-rule="evenodd">
        <path fill="#AF0322" fill-rule="nonzero" d="M45 32H21a4 4 0 0 1-4-4V16c0-8.837 7.163-16 16-16s16 7.163 16 16v12a4 4 0 0 1-4 4zm-20-8h16v-8a8 8 0 1 0-16 0v8z"/>
        <rect width="66" height="56" y="24" fill="#E21C40" rx="3"/>
        <path fill="#AF0322" d="M41 48a8 8 0 1 0-12 6.88V60a4 4 0 1 0 8 0v-5.12A8 8 0 0 0 41 48z"/>
        <circle cx="66" cy="23" r="18" fill="#FFF"/>
        <circle cx="66" cy="23" r="15" fill="#4CC71D"/>
        <path stroke="#FFF" stroke-linecap="round" stroke-linejoin="round" stroke-width="3" d="M72 20l-7.563 7L61 23.818"/>
    </g>
</svg>
