<svg xmlns="http://www.w3.org/2000/svg" width="77" height="20" viewBox="0 0 77 20">
    <path fill="#043F93" d="M14.559 14.925c-.062-.033-.166-.03-.248.083-.508.694-2.356 2.96-4.76 2.96-3.785 0-6.329-3.25-6.329-8.09 0-4.273 2.238-7.374 5.332-7.374.5 0 .993.166 1.389.469l3.21 2.452c.08.06.183.07.271.025.088-.045.142-.135.142-.234V2.412c0-.1-.056-.192-.147-.237-1.128-.541-2.572-.84-4.07-.84C3.845 1.335 0 5.318 0 11.022c0 5.202 3.392 8.976 8.067 8.976 3.796 0 6.052-2.942 6.583-4.796.04-.138-.017-.239-.091-.277zm13.189 3.573c-.022-.025-.035-.057-.034-.09V9.702c0-2.002-1.452-3.364-3.612-3.392-1.798-.02-3.374 1.17-4.133 1.743-.1.076-.189.143-.262.195-.01.007-.022.008-.032.002-.01-.006-.016-.017-.016-.028V.262c.001-.081-.036-.158-.1-.207-.062-.05-.144-.067-.22-.047-.027.004-2.71.439-3.59.64-.102.026-.176.113-.186.217-.014.106.04.209.135.257.03.021.748.507.967.628.078.044.126.127.125.217v16.44c0 .032-.011.063-.032.088l-.94.675c-.076.073-.1.186-.06.284.038.1.134.166.24.164h4.454c.107.002.203-.064.24-.164.04-.102.014-.217-.067-.29L19.7 18.5c-.025-.024-.04-.059-.04-.094V9.59c0-.038.018-.076.047-.101.84-.73 1.645-1.144 2.46-1.262.667-.097 1.345.11 1.859.567.522.465.82 1.13.82 1.83v7.784c0 .032-.01.063-.031.088l-.95.702c-.075.074-.098.186-.058.284.04.101.132.164.24.164h4.449c.106-.002.2-.068.239-.167.038-.098.014-.21-.062-.285l-.925-.696zm13.322-3.284c-.101-.054-.222-.024-.294.074-.694.933-2.134 2.5-3.998 2.5-2.747 0-4.596-2.169-4.715-5.524-.001-.035.011-.069.035-.094.025-.027.06-.042.097-.042h8.699c.078 0 .152-.036.2-.098.05-.06.069-.14.054-.216-.722-3.617-2.555-5.529-5.303-5.529-3.508 0-6.155 3.063-6.155 7.123 0 3.943 2.423 6.59 6.028 6.59 2.527 0 4.515-1.642 5.454-4.505.041-.105-.002-.225-.102-.279zm-8.968-4.173c.247-2.34 1.43-3.738 3.165-3.738 1.569 0 2.483 1.113 3.059 3.723.008.039-.002.08-.027.11-.025.032-.063.05-.103.05h-5.96c-.039 0-.075-.017-.101-.046-.025-.026-.037-.063-.033-.099zm21.254 4.703c-.08-.04-.196-.033-.27.08l-.049.072c-.543.81-1.287 1.916-3.213 1.916-2.72 0-4.695-2.344-4.695-5.572 0-2.754 1.453-4.912 3.31-4.912.116 0 .233.007.35.02.233.027.458.12.65.267l2.801 2.152c.08.06.184.07.273.025.087-.044.142-.135.141-.233V7.184c.001-.1-.055-.19-.144-.236-.854-.415-2.028-.662-3.14-.662-3.89 0-6.607 2.94-6.607 7.15 0 3.926 2.29 6.564 5.7 6.564 3.305 0 4.437-2.262 5-3.962.044-.111-.003-.237-.107-.294zm23.27-9.213c-.325-.168-.688-.252-1.054-.245-.936 0-2.107.728-3.48 2.164-.007.007-.017.01-.026.006-.009-.003-.014-.012-.014-.021l-.074-1.845c-.005-.078-.045-.15-.108-.195-.064-.046-.145-.06-.22-.039l-3.384.979c-.092.026-.161.1-.18.193-.023.092.007.189.077.253l1.112 1.023c.027.026.043.06.043.098v9.506c0 .034-.012.066-.035.091l-.812.673c-.076.074-.1.186-.06.284.038.1.134.165.24.164h4.275c.108 0 .204-.066.242-.17.038-.102.01-.217-.073-.289l-.863-.66c-.028-.025-.044-.06-.043-.097v-8.25c0-.113.026-.224.078-.32.196-.369.506-.716.899-1.002.393-.288.786-.536 1.285-.416.377.092 1.145.679 1.605 1.03.165.127.297.227.369.273.08.052.181.055.264.008.082-.046.132-.134.132-.229V6.842c0-.132-.076-.252-.194-.311zM61.348 11.39c-.022-.032.033-.088.099-.149l4.469-4.19c.081-.077.094-.202.029-.293-.043-.06-.112-.094-.185-.092h-3.231c-.1-.002-.193.053-.238.142-.046.09-.037.196.023.276l.846 1.143c.04.054.033.13-.015.175l-4.7 4.443v-4.41.002V.262c.001-.08-.035-.155-.098-.205-.063-.05-.145-.067-.222-.048-.027.004-2.71.439-3.59.64-.103.026-.177.114-.186.22-.014.104.04.206.134.253.03.02.698.472.966.618.079.044.127.128.126.218V18.38c0 .032-.011.062-.032.087l-.95.702c-.076.076-.098.19-.056.29.043.098.141.16.248.158h4.451c.107.001.203-.065.24-.164.04-.102.014-.218-.067-.292l-.924-.662c-.026-.024-.04-.059-.04-.094v-4.254c0-.035.014-.07.04-.095l.908-.897c.028-.027.067-.04.106-.037.04.004.074.025.096.057.026.038 2.577 3.622 3.86 5.407.021.03.016.07-.012.093l-.628.534c-.078.075-.101.19-.06.29.043.1.142.163.25.16h4.149c.132 0 .184-.06.204-.11.048-.119-.046-.279-.118-.354-.145-.19-5.811-7.702-5.892-7.81z"/>
</svg>
