<svg xmlns="http://www.w3.org/2000/svg" width="84" height="72" viewBox="0 0 84 72">
    <path fill="#ADB9C4" fill-rule="nonzero" d="M1.5 0A1.5 1.5 0 0 0 0 1.5v45A1.5 1.5 0 0 0 1.5 48h45a1.5 1.5 0 0 0 1.5-1.5v-45A1.5 1.5 0 0 0 46.5 0h-45zM3 3h13.5v12a1.5 1.5 0 0 0 2.4 1.201l5.1-3.826 5.1 3.826A1.5 1.5 0 0 0 31.5 15V3H45v42H3V3zm16.5 0h9v9l-3.6-2.701a1.5 1.5 0 0 0-1.8 0L19.5 12V3zm33 16.5a1.5 1.5 0 1 0 0 3h11.11l8.575 15.718a1.5 1.5 0 0 0 .483.53L81 44.303V60h-3.12c-.734-5.074-5.11-9-10.38-9C61.719 51 57 55.719 57 61.5S61.719 72 67.5 72c5.27 0 9.646-3.926 10.38-9h4.62a1.5 1.5 0 0 0 1.5-1.5v-18a1.5 1.5 0 0 0-.668-1.248l-8.692-5.795-8.825-16.175A1.5 1.5 0 0 0 64.5 19.5h-12zm0 6A1.5 1.5 0 0 0 51 27v10.5a1.5 1.5 0 0 0 1.5 1.5H66a1.5 1.5 0 1 0 0-3H54v-7.5h6a1.5 1.5 0 1 0 0-3h-7.5zm-24 7.5a1.5 1.5 0 1 0 0 3h12a1.5 1.5 0 1 0 0-3h-12zm0 6a1.5 1.5 0 1 0 0 3h6a1.5 1.5 0 1 0 0-3h-6zM1.477 50.98A1.5 1.5 0 0 0 0 52.5v9A1.5 1.5 0 0 0 1.5 63h4.62c.734 5.074 5.11 9 10.38 9C22.281 72 27 67.281 27 61.5S22.281 51 16.5 51c-5.27 0-9.646 3.926-10.38 9H3v-7.5a1.5 1.5 0 0 0-1.523-1.52zM16.5 54c4.16 0 7.5 3.34 7.5 7.5S20.66 69 16.5 69a7.472 7.472 0 0 1-7.491-7.324 1.5 1.5 0 0 0 0-.364A7.472 7.472 0 0 1 16.5 54zm51 0c4.1 0 7.398 3.247 7.491 7.324a1.5 1.5 0 0 0 0 .364A7.472 7.472 0 0 1 67.5 69c-4.16 0-7.5-3.34-7.5-7.5s3.34-7.5 7.5-7.5zm-51 4.5c-1.639 0-3 1.36-3 3s1.361 3 3 3c1.64 0 3-1.36 3-3s-1.36-3-3-3zm51 0c-1.639 0-3 1.36-3 3s1.361 3 3 3c1.64 0 3-1.36 3-3s-1.36-3-3-3zm-36 1.5a1.5 1.5 0 1 0 0 3h21a1.5 1.5 0 1 0 0-3h-21z"/>
</svg>
