<svg xmlns="http://www.w3.org/2000/svg" xmlns:xlink="http://www.w3.org/1999/xlink" width="529" height="370" viewBox="0 0 529 370">
    <defs>
        <linearGradient id="a" x1="25.559%" x2="80.702%" y1="113.049%" y2="11.897%">
            <stop offset="0%" stop-color="#FFF"/>
            <stop offset="100%" stop-color="#E8E4FF"/>
        </linearGradient>
        <path id="b" d="M.085.137h205.23v4.806H.085z"/>
    </defs>
    <g fill="none" fill-rule="evenodd">
        <path fill="url(#a)" d="M328.04 0c-30.879.01-61.376 9.239-85.544 29.595-21.59 18.184-35.918 44.608-56.103 64.46-22.913 22.535-52.78 33.41-82.292 42.462-20.82 6.387-41.583 14.033-59.661 26.661-65.638 45.85-43.717 123.74-27.198 190.507l414.598 1.61 9.937-20.58c25.247-52.287 55.935-97.33 53.245-158.779-2.477-56.605-26.54-111.687-71.227-144.727C396.833 11.273 362.27.012 328.153 0h-.113z" opacity=".196" transform="translate(17)"/>
        <path fill="#000" fill-opacity=".298" d="M169.019 366.64l26.047-.48 26.047-.443 52.093-.693 13.024-.2 13.023-.239a804.308 804.308 0 0 1 26.047-.023l13.023.272c4.342.137 8.683.228 13.024.413 8.682.321 17.364.732 26.047 1.393v.462c-8.683.662-17.365 1.072-26.047 1.393-4.341.185-8.682.277-13.024.414l-13.023.271c-8.682.134-17.364.124-26.047-.023l-13.023-.239-13.024-.2-52.093-.692-26.047-.443-26.047-.48v-.463z"/>
        <g transform="translate(323.432 352.166)">
            <mask id="c" fill="#fff">
                <use xlink:href="#b"/>
            </mask>
            <path fill="#000" fill-opacity=".3" d="M0 2.172l25.654-.48 25.653-.443 51.308-.693 12.827-.2 12.826-.239a780.212 780.212 0 0 1 25.654-.023l12.827.272c4.275.137 8.551.228 12.827.413 8.551.321 17.102.732 25.654 1.393v.462c-8.552.662-17.103 1.072-25.654 1.393-4.276.185-8.552.277-12.827.414l-12.827.271c-8.551.134-17.102.124-25.654-.023l-12.826-.239-12.827-.2-51.308-.692-25.653-.443L0 2.635v-.463z" mask="url(#c)"/>
        </g>
        <path fill="#000" fill-opacity=".297" d="M0 354.17l79.475-.924 79.475-.692 39.738-.44 19.869-.117 9.934.022 9.934.073 19.87.271c6.622.137 13.245.229 19.868.414 13.246.32 26.492.731 39.738 1.393v.462c-13.246.661-26.492 1.072-39.738 1.393-6.623.185-13.246.276-19.869.413l-19.869.272-9.934.073-9.934.021-19.87-.117-39.737-.44-79.475-.692L0 354.632v-.462z"/>
        <path fill="#FFA800" d="M215.284 231.63l-91.199.213-.213-91.078 91.199-.213z"/>
        <path fill="#FFD88F" d="M215.108 156.363l-91.199.213-.037-15.81 91.199-.214z"/>
        <path fill="#FFF" d="M210.463 227.364a1.566 1.566 0 1 1-3.132.006 1.566 1.566 0 0 1 3.132-.006M132.839 227.545a1.566 1.566 0 1 1-3.133.005 1.566 1.566 0 0 1 3.133-.005"/>
        <path fill="#AC1548" d="M209.899 160.983a1.566 1.566 0 1 1-3.133.005 1.566 1.566 0 0 1 3.133-.005"/>
        <path fill="#FFF" d="M132.275 161.164a1.566 1.566 0 0 1-1.564 1.57 1.566 1.566 0 1 1 1.564-1.57"/>
        <path fill="#FFD88F" d="M123.955 176.012l-5.524.013-.064-27.342 5.524-.013z"/>
        <path fill="#FFD88F" d="M119.774 159.628l-2.677.007-.01-4.537 2.677-.007z"/>
        <path fill="#FFF" d="M131.778 224.125l-.113-48.131 1.288-.003.11 46.845 24.775-.058.003 1.286zM165.65 224.046l-.003-1.286 40.618-.095-.05-21.413 1.288-.003.053 22.7z"/>
        <path fill="#AC1548" d="M206.205 197.167l-.072-30.744 1.288-.003.072 30.744z"/>
        <path fill="#FFF" fill-opacity=".8" d="M102.733 257.737a.546.546 0 0 1 .01.007c1.37.023 2.738-.062 4.11-.043h.015c2.014-1.035 5.962-2.838 9.076-2.874 4.371-.05 5.847.853 6.824 2.858.976 2.004-2.023 4.13-4.41 4.093-2.309-.037-6.17-.54-12.196-3.104-1.026.006-2.05.052-3.076.049l.002.002a7139.465 7139.465 0 0 0 32.008 46.276l.487.693c6.71 9.605 11.983 17.06 14.059 19.825l-.733.645c-2.13-2.836-7.583-10.546-14.49-20.439l-.483-.69a6981.115 6981.115 0 0 1-31.68-45.805.585.585 0 0 1-.08.01l-.083.005c-.374.478-.693 1.009-.99 1.518-.244.416-.512.875-.723 1.354-.183 6.753-1.38 10.554-2.338 12.698-.972 2.176-4.168 3.995-5.575 2.265-1.408-1.73-1.606-3.448.284-7.384 1.334-2.779 4.589-5.567 6.389-6.967.2-.8.618-1.566 1.009-2.263.21-.377.435-.763.68-1.136-.611.052-1.22.13-1.818.282-1.052.265-2.24.34-3.335.647-7.476 7.934-13.027 11.273-16.52 12.865-3.6 1.641-9.573.401-9.423-3.293.15-3.695 1.792-6.047 8.468-8.871 5.327-2.254 13.72-1.832 16.896-1.57 1.956-.712 4.318-.865 6.36-1.056a.562.562 0 0 1 .007-.261l-.002-.002c-.966-1.407-1.91-2.789-2.83-4.132-.18.116-.421.122-.596-.095-.186-.229-1.612-.217-2.044-.248-.306-.021-.614-.037-.922-.06-10.037 4.318-16.468 5.176-20.31 5.247-3.958.074-8.943-3.439-7.332-6.768 1.61-3.329 4.054-4.834 11.304-4.771 5.846.051 13.476 3.854 16.212 5.325.636.058 1.285.057 1.91.114.268.024.632.032.981.088a4060.621 4060.621 0 0 1-5.37-7.882.444.444 0 0 1-.294-.435l-.246-.36a.46.46 0 0 1-.582.047c-.798-.515-1.689-.839-2.552-1.22-9.609 1.26-15.312.443-18.617-.422-3.415-.894-6.841-5.115-4.651-7.583 2.19-2.468 4.652-3.169 10.86-1.36 4.86 1.415 10.307 6.275 12.442 8.318.75.365 1.541.649 2.29 1.02a1031.198 1031.198 0 0 1-5.221-7.767l-.002-.003c-1.442-.755-9.32-5.031-12.55-9.92-3.56-5.39-3.616-7.947-1.9-10.764 1.716-2.818 6.764-.792 8.627 2.202 1.73 2.784 4.071 7.69 5.695 16.525a865.702 865.702 0 0 0 6.506 9.706l.19-2.993c-.88-2.52-3.22-9.9-2.422-15.12.978-6.384 2.653-8.317 5.817-9.26 3.165-.941 5.55 3.942 4.922 7.41-.603 3.328-2.242 8.765-7.326 16.809l-.284 4.472.001.002c1.692 2.493 3.557 5.232 5.552 8.154.424-.993.567-2.249.562-3.23-.001-.156.057-.268.146-.341-.16-3.584-.186-11.21 2.047-16.113 3-6.592 5.398-8.17 9.1-8.223 3.702-.054 4.788 5.941 3.051 9.493-1.69 3.46-5.2 8.946-13.412 16.25-.098 1.06-.362 2.212-.861 3.09.858 1.251 1.735 2.534 2.63 3.843l.003.003c.648-.765 1.104-1.693 1.751-2.458a19.19 19.19 0 0 1 1.764-1.79c1.001-2.762 4.222-10.91 8.65-14.903 5.38-4.854 8.208-5.348 11.626-3.926 3.417 1.423 2.023 7.354-.986 9.922-2.9 2.476-8.226 6.064-18.46 9.468-.791.7-1.565 1.44-2.18 2.285-.484.665-.895 1.387-1.418 2.02z"/>
        <path fill="#FFF" fill-opacity=".8" d="M95.016 305.785a.4.4 0 0 1 .008-.003c.559-.821 1.051-1.685 1.608-2.508a.436.436 0 0 1 .006-.01c.172-1.631.646-4.74 1.861-6.641 1.707-2.67 2.843-3.205 4.45-3 1.606.205 1.705 2.868.734 4.299-.94 1.385-2.781 3.525-6.734 6.157-.404.624-.784 1.264-1.193 1.884a5263.282 5263.282 0 0 0 38.18-.928c.39-.011.778-.024 1.16-.034l.487.693-1.164.031a4915.136 4915.136 0 0 1-38.685.942.422.422 0 0 1-.026.053l-.03.052c.142.417.338.821.53 1.204.155.313.327.657.534.975 4.03 2.796 5.865 5.032 6.786 6.465.936 1.454.771 4.114-.84 4.28-1.61.164-2.732-.398-4.373-3.108-1.158-1.913-1.559-4.994-1.694-6.641-.406-.44-.706-.998-.974-1.511-.145-.278-.29-.567-.42-.865a8.19 8.19 0 0 0-.55 1.214c-.258.743-.684 1.493-.934 2.279 1.85 7.684 1.673 12.375 1.251 15.124-.434 2.835-3.561 5.962-5.746 4.402-2.185-1.56-2.962-3.49-2.025-8.658.748-4.124 4.34-9.042 5.763-10.863.344-1.468 1.19-2.96 1.887-4.274a.409.409 0 0 1-.157-.108l-3.637.072c0 .156-.093.305-.295.325-.213.021-.773.89-.963 1.14-.135.177-.267.358-.403.535-1.366 7.799-3.401 12.037-4.886 14.394-1.527 2.427-5.643 4.052-7.026 1.752-1.382-2.3-1.326-4.378 1.595-8.747 2.354-3.522 7.697-6.634 9.68-7.707.287-.362.545-.756.828-1.112.12-.153.27-.37.442-.559-2.475.046-4.798.087-6.92.12a.323.323 0 0 1-.384.006l-.316.005a.334.334 0 0 1-.203.372c-.63.28-1.181.69-1.756 1.062-3.053 6.323-5.817 9.455-7.657 11.114-1.9 1.713-5.827 2.112-6.456-.196-.629-2.308-.076-4.079 3.49-7.122 2.793-2.383 7.91-3.751 10-4.233.52-.31 1.006-.675 1.529-.98-2.705.038-5.011.064-6.794.073-1.027.571-6.761 3.65-11.017 3.663-4.691.015-6.266-.968-7.296-3.127-1.03-2.16 2.207-4.414 4.767-4.352 2.38.057 6.293.59 12.308 3.118 1.957-.003 4.883-.032 8.48-.087-.582-.434-1.162-.87-1.743-1.304-1.882-.468-7.296-1.984-10.15-4.542-3.49-3.13-4-4.914-3.314-7.206.686-2.292 4.602-1.797 6.46-.037 1.781 1.688 4.434 4.842 7.3 11.12l2.605 1.951h.001c2.187-.033 4.588-.076 7.157-.125h.003c-.435-.65-1.14-1.236-1.738-1.623a.304.304 0 0 1-.15-.224c-2.24-1.328-6.884-4.343-8.976-7.646-2.812-4.438-2.818-6.518-1.38-8.783 1.44-2.265 5.514-.54 6.982 1.925 1.43 2.4 3.369 6.708 4.542 14.587.605.48 1.2 1.098 1.535 1.75 1.102-.023 2.23-.045 3.381-.067h.002c-.206-.697-.589-1.342-.797-2.039a13.918 13.918 0 0 1-.386-1.78c-1.28-1.704-4.95-6.895-5.618-11.165-.81-5.19.015-7.1 2.237-8.606 2.223-1.506 5.273 1.697 5.637 4.54.351 2.743.415 7.396-1.585 14.95.11.759.253 1.522.522 2.23.211.558.487 1.094.663 1.663zM420.37 232.06c-.501-.472-.917-1.03-1.388-1.532-.6-.638-1.319-1.173-2.05-1.674-8.856-1.77-13.653-4.202-16.32-5.96-2.766-1.822-4.54-6.607-1.847-8.142 2.693-1.535 5.094-1.417 10.068 2.06 4.094 2.86 7.614 9.3 8.732 11.49a16.09 16.09 0 0 1 1.651 1.306c.618.569 1.093 1.293 1.71 1.86l.002-.001c.609-1.18 1.204-2.337 1.788-3.465-.506-.679-.845-1.61-1.036-2.48-7.58-5.22-11.066-9.416-12.83-12.117-1.81-2.772-1.53-7.867 1.552-8.204 3.082-.338 5.238.725 8.415 5.892 2.363 3.844 3.132 10.184 3.37 13.18a.35.35 0 0 1 .157.267c.098.816.347 1.845.802 2.627 1.354-2.635 2.62-5.104 3.769-7.35v-.002l-.7-3.687c-5.058-6.159-6.983-10.508-7.83-13.21-.88-2.818.596-7.123 3.323-6.667 2.728.456 4.32 1.89 5.793 7.094 1.205 4.254.025 10.63-.445 12.815l.468 2.467a732.13 732.13 0 0 0 4.4-8.737c.435-7.51 1.871-11.83 3.021-14.322 1.237-2.68 5.223-4.886 6.94-2.722 1.718 2.164 1.937 4.294-.463 9.142-2.177 4.396-8.282 8.764-9.401 9.54l-.001.003a862.797 862.797 0 0 1-3.533 6.994c.583-.386 1.21-.703 1.796-1.084 1.563-1.919 5.585-6.52 9.478-8.199 4.97-2.144 7.09-1.816 9.165.008 2.076 1.825-.334 5.687-3.079 6.782-2.657 1.06-7.311 2.33-15.427 2.275-.678.406-1.384.768-1.995 1.278a.385.385 0 0 1-.488.02c-.056.11-.11.217-.167.326a.371.371 0 0 1-.199.392c-1.116 2.18-2.34 4.565-3.646 7.104.284-.083.586-.126.806-.174.514-.112 1.053-.179 1.575-.292 2.122-1.506 8.068-5.454 12.92-6.101 6.02-.802 8.205.196 9.89 2.797 1.683 2.6-2.096 6.034-5.392 6.381-3.2.338-8.633.29-17.422-2.26-.253.05-.507.095-.76.145-.356.07-1.542.208-1.672.417-.124.198-.325.218-.486.14-.626 1.212-1.267 2.457-1.924 3.727a.47.47 0 0 1 .031.218c1.717-.053 3.697-.17 5.396.22 2.612-.547 9.542-1.765 14.202-.442 5.84 1.657 7.449 3.442 7.956 6.497.508 3.054-4.327 4.702-7.489 3.71-3.068-.962-8.026-3.163-15.06-8.984-.943-.14-1.938-.08-2.84-.193a9.48 9.48 0 0 0-1.54-.046c.243.285.47.582.684.874.397.539.824 1.133 1.073 1.776 1.64.977 4.635 2.958 6.031 5.129 1.978 3.076 1.992 4.524 1.001 6.107-.99 1.583-3.835.402-4.868-1.306-1.018-1.682-2.406-4.718-3.258-10.31-.226-.376-.496-.73-.74-1.05-.301-.393-.62-.801-.981-1.16a82.81 82.81 0 0 1-.07.005.49.49 0 0 1-.067 0 5837.68 5837.68 0 0 1-21.58 41.337l-.33.624c-4.714 8.935-8.447 15.905-9.923 18.482l-.676-.46c1.439-2.512 5.048-9.253 9.63-17.928.11-.205.22-.416.331-.626a5963.19 5963.19 0 0 0 21.804-41.763l.001-.002c-.852.109-1.708.176-2.561.277-4.741 2.754-7.898 3.571-9.814 3.84-1.979.278-4.692-1.179-4.088-2.946.604-1.767 1.737-2.67 5.375-3.08 2.591-.292 6.059.799 7.84 1.45a.503.503 0 0 1 .013-.001c1.137-.157 2.283-.228 3.42-.389a.463.463 0 0 1 .006-.007z"/>
        <path fill="#FFF" fill-opacity=".8" d="M431.76 271.19c.089-.49.262-.964.38-1.45.15-.616.189-1.265.203-1.907-2.445-6.07-2.874-9.944-2.867-12.259.008-2.4 2.211-5.378 4.214-4.356 2.003 1.021 2.886 2.524 2.75 6.92-.111 3.618-2.624 8.31-3.51 9.859-.018.51-.054 1.02-.137 1.52-.1.6-.352 1.176-.451 1.776h.002l2.816-.295c.211-.576.642-1.151 1.095-1.612.158-6.67 1.323-10.45 2.262-12.592.965-2.199 4.172-4.054 5.602-2.32 1.43 1.733 1.641 3.462-.236 7.441-1.396 2.96-4.942 5.946-6.667 7.281a.254.254 0 0 1-.1.202c-.458.383-.984.942-1.278 1.528h.003c2.14-.225 4.14-.438 5.96-.636l1.964-1.89c1.731-5.514 3.609-8.41 4.915-9.996 1.361-1.654 4.564-2.47 5.371-.636.807 1.834.569 3.369-2.008 6.33-2.106 2.42-6.448 4.24-7.963 4.824l-1.312 1.263c2.994-.326 5.428-.604 7.055-.804 4.736-2.723 7.932-3.57 9.904-3.863 2.121-.316 5.045 1.222 4.413 3.124-.632 1.9-1.84 2.88-5.74 3.353-3.538.428-8.623-1.538-9.534-1.906-1.483.177-3.402.394-5.653.64.466.2.908.455 1.372.658 1.787.184 6.18.793 8.748 2.484 3.279 2.16 3.922 3.575 3.638 5.558-.283 1.983-3.587 2.057-5.344.83-1.7-1.189-4.322-3.505-7.515-8.445-.516-.25-1.016-.534-1.569-.7a.28.28 0 0 1-.207-.288l-.263.028a.272.272 0 0 1-.32.034c-1.766.193-3.701.398-5.763.616.163.14.31.304.426.419.272.266.527.567.803.838 1.759.687 6.521 2.721 8.843 5.405 2.88 3.328 3.142 5.05 2.231 7.104-.91 2.053-4.5 1.128-6.02-.73-1.478-1.806-3.608-5.117-5.552-11.457-.131-.133-.26-.27-.39-.402-.184-.189-.74-.853-.918-.849-.17.005-.263-.11-.28-.24-.984.104-1.995.21-3.029.317a.342.342 0 0 1-.119.106c.714 1.02 1.572 2.172 2.01 3.357 1.371 1.365 4.866 5.081 5.915 8.431 1.315 4.198.87 5.882-.785 7.404-1.654 1.522-4.577-.753-5.231-3.064-.635-2.24-1.269-6.12-.528-12.698-.289-.627-.72-1.206-1.011-1.797a6.85 6.85 0 0 0-.585-.952c-.076.26-.167.516-.258.762-.17.455-.362.95-.653 1.357.058 1.383.044 3.984-.72 5.693-1.082 2.422-1.956 3.006-3.312 3.034-1.356.03-1.768-2.164-1.142-3.469.618-1.285 1.91-3.333 4.97-6.073.139-.285.246-.59.343-.866.12-.338.24-.694.315-1.055l-.03-.04a.354.354 0 0 1-.027-.041c-5.904.611-12.461 1.275-18.838 1.908a4020.657 4020.657 0 0 1-14.377 1.401c.11-.205.22-.416.332-.626.32-.031.643-.06.968-.092a4474.224 4474.224 0 0 0 31.824-3.174c-.404-.473-.786-.966-1.187-1.443-3.557-1.778-5.309-3.367-6.234-4.42-.955-1.089-1.148-3.312.165-3.648 1.314-.337 2.313-.01 4.008 2.033 1.208 1.454 1.923 3.989 2.235 5.327a.366.366 0 0 1 .006.007c.548.627 1.047 1.293 1.596 1.918l.007.001z"/>
        <path fill="#FFF" d="M471.805 34.83c7.317 3.07 10.755 11.482 7.68 18.789-3.074 7.306-11.497 10.74-18.813 7.67-7.317-3.07-10.755-11.483-7.68-18.79 3.074-7.306 11.497-10.74 18.813-7.67" opacity=".802"/>
        <path fill="#FFF" d="M486.932 31.07c6.1 7.426 7.99 17.906 4.012 27.359a26.643 26.643 0 0 1-12.9 13.635c-6.718 3.278-14.767 3.771-22.188.657-3.751-1.574-6.978-3.914-9.526-6.778a26.837 26.837 0 0 1-6.552-13.722 26.547 26.547 0 0 1 1.76-14.526c5.724-13.603 21.466-20.028 35.08-14.314a26.544 26.544 0 0 1 10.314 7.69m-47.146 5.888a28.45 28.45 0 0 0-1.829 15.862 28.759 28.759 0 0 0 5.2 12.222 28.326 28.326 0 0 0 11.963 9.428c8.873 3.724 18.6 2.633 26.223-2.06a28.445 28.445 0 0 0 11.354-13.247c4.22-10.028 2.277-21.137-4.118-29.075a28.392 28.392 0 0 0-11.225-8.458c-14.572-6.116-31.439.76-37.568 15.328M67.515 149.263c7.316 3.07 10.755 11.483 7.68 18.789-3.074 7.307-11.498 10.74-18.814 7.67-7.317-3.07-10.755-11.482-7.68-18.79 3.074-7.305 11.497-10.74 18.814-7.67" opacity=".802"/>
        <path fill="#FFF" d="M82.642 145.504c6.1 7.426 7.989 17.906 4.012 27.358a26.642 26.642 0 0 1-12.9 13.635c-6.72 3.278-14.768 3.772-22.189.658a26.38 26.38 0 0 1-9.526-6.779 26.84 26.84 0 0 1-6.552-13.721 26.544 26.544 0 0 1 1.76-14.527c5.724-13.602 21.467-20.027 35.08-14.314a26.547 26.547 0 0 1 10.315 7.69m-47.147 5.889a28.45 28.45 0 0 0-1.829 15.862 28.755 28.755 0 0 0 5.201 12.221 28.322 28.322 0 0 0 11.962 9.429c8.874 3.724 18.6 2.632 26.223-2.061a28.445 28.445 0 0 0 11.354-13.246c4.22-10.028 2.277-21.138-4.118-29.075a28.395 28.395 0 0 0-11.225-8.459c-14.571-6.115-31.438.761-37.568 15.329M399.532 32.181a3.633 3.633 0 0 1 1.946 4.76 3.641 3.641 0 0 1-4.766 1.942 3.633 3.633 0 0 1-1.945-4.759 3.641 3.641 0 0 1 4.765-1.943M381.788 29.414a3.633 3.633 0 0 1 1.946 4.759 3.641 3.641 0 0 1-4.766 1.943 3.633 3.633 0 0 1-1.945-4.76 3.641 3.641 0 0 1 4.765-1.942M366.445 55.68a1.806 1.806 0 0 1 .967 2.366 1.81 1.81 0 0 1-3.336-1.4 1.81 1.81 0 0 1 2.369-.967" opacity=".802"/>
        <path fill="#FFF" d="M403.364 31.23a6.775 6.775 0 0 1 1.016 6.929 6.747 6.747 0 0 1-3.268 3.454 6.791 6.791 0 0 1-5.62.166 6.682 6.682 0 0 1-2.413-1.717 6.796 6.796 0 0 1-1.659-3.475 6.724 6.724 0 0 1 .446-3.68c1.45-3.446 5.437-5.073 8.885-3.626a6.722 6.722 0 0 1 2.613 1.948m-11.942 1.492a7.206 7.206 0 0 0-.463 4.017 7.285 7.285 0 0 0 1.317 3.096 7.173 7.173 0 0 0 3.03 2.388 7.282 7.282 0 0 0 6.642-.522 7.204 7.204 0 0 0 2.876-3.355 7.251 7.251 0 0 0-1.043-7.364 7.192 7.192 0 0 0-2.843-2.143c-3.691-1.549-7.963.193-9.516 3.883M370.945 45.618a1.3 1.3 0 1 1-1.01 2.398 1.3 1.3 0 1 1 1.01-2.398" opacity=".802"/>
        <path fill="#FFF" d="M374.115 43.8a4.751 4.751 0 0 1 .713 4.86 4.733 4.733 0 0 1-2.292 2.422 4.764 4.764 0 0 1-3.941.117 4.767 4.767 0 0 1-2.856-3.642 4.716 4.716 0 0 1 .312-2.58 4.769 4.769 0 0 1 6.232-2.543c.738.31 1.358.786 1.832 1.366m-8.375 1.046a5.051 5.051 0 0 0-.325 2.818c.135.785.45 1.53.924 2.171a5.032 5.032 0 0 0 2.125 1.675 5.107 5.107 0 0 0 6.675-2.72 5.085 5.085 0 0 0-.732-5.164 5.045 5.045 0 0 0-1.993-1.502 5.108 5.108 0 0 0-6.674 2.722M386.37 56.412c0-.998.81-1.807 1.81-1.807s1.81.81 1.81 1.807c0 .998-.81 1.808-1.81 1.808s-1.81-.81-1.81-1.808M502.621 150.924a6.013 6.013 0 0 1-7.049 4.75 6.006 6.006 0 0 1-4.757-7.039 6.013 6.013 0 0 1 7.05-4.75 6.006 6.006 0 0 1 4.756 7.04" opacity=".802"/>
        <path fill="#FFF" d="M505.458 156.79c-2.523 3.132-6.66 4.802-10.878 3.984a11.16 11.16 0 0 1-6.697-4.11c-1.92-2.468-2.811-5.718-2.17-9.02a11.024 11.024 0 0 1 1.965-4.478 11.251 11.251 0 0 1 5.068-3.855 11.151 11.151 0 0 1 6.109-.523c6.07 1.177 10.052 7.067 8.874 13.125a11.087 11.087 0 0 1-2.271 4.877m-6.452-18.782a11.951 11.951 0 0 0-6.662.61 12.06 12.06 0 0 0-4.568 3.174 11.831 11.831 0 0 0-2.843 5.7c-.768 3.95.513 7.835 3.09 10.551a11.918 11.918 0 0 0 6.406 3.51c4.474.868 8.864-.877 11.572-4.173a11.86 11.86 0 0 0 2.509-5.316c1.26-6.485-3.004-12.796-9.504-14.056M509.216 121.332a6.013 6.013 0 0 1-7.049 4.75 6.006 6.006 0 0 1-4.757-7.04 6.013 6.013 0 0 1 7.05-4.75 6.006 6.006 0 0 1 4.756 7.04M453.387 105.43a2.99 2.99 0 0 1-5.87-1.139 2.99 2.99 0 0 1 3.505-2.362 2.986 2.986 0 0 1 2.365 3.5M471.2 109.295a2.152 2.152 0 0 1-4.225-.819 2.151 2.151 0 0 1 4.225.82" opacity=".802"/>
        <path fill="#FFF" d="M475.215 113.801a7.875 7.875 0 0 1-7.629 2.794 7.828 7.828 0 0 1-4.697-2.882 7.844 7.844 0 0 1-1.521-6.326 7.725 7.725 0 0 1 1.378-3.14 7.89 7.89 0 0 1 3.554-2.704 7.822 7.822 0 0 1 4.284-.367c4.256.825 7.05 4.956 6.224 9.204a7.778 7.778 0 0 1-1.593 3.421m-4.525-13.172a8.382 8.382 0 0 0-4.672.428 8.457 8.457 0 0 0-3.204 2.226 8.295 8.295 0 0 0-1.993 3.997 8.41 8.41 0 0 0 2.167 7.4 8.36 8.36 0 0 0 4.492 2.462 8.427 8.427 0 0 0 8.116-2.927 8.32 8.32 0 0 0 1.76-3.728c.883-4.548-2.107-8.974-6.666-9.858M458.934 137.857a2.986 2.986 0 1 1 1.223 5.846 2.986 2.986 0 1 1-1.223-5.846" opacity=".802"/>
        <path fill="#FFADAE" d="M328.003 127.23l1.432-1.442a10.025 10.025 0 0 0 2.845-8.224l-.128-1.09a2.463 2.463 0 0 1 .04-.811l.877-4.01a2.999 2.999 0 0 0-.145-1.754l-.026-.065a.898.898 0 0 1 .774-1.237.944.944 0 0 1 .75.271l.549.546a5.384 5.384 0 0 1 1.577 3.473l.153 2.396 5.097-2a3.173 3.173 0 0 1 2.803.241l.75.455c.34.207.562.563.597.96.021.248.15.475.352.621.512.37.81.967.798 1.597l-.015.83c-.008.427.149.831.424 1.138.307.342.512.763.53 1.222v.02c.012.297-.027.594-.116.878l-1.025 3.266a2.86 2.86 0 0 1-1.603 1.773c-2.43 1.04-7.629 3.198-7.629 3.198l-6.569 6.706-3.092-8.958z"/>
        <path fill="#FFF" d="M335.156 132.837l-24.2 32.047a10.016 10.016 0 0 1-4.435 3.504c-1.984.8-4.215.964-6.373.383l-24.476-6.599-12.674-14.404-.592-.674.134-.985 1.208-8.85-2.65-18.572 12.82 8.788 1.651 1.222 26.067 19.27 26.562-24.17 6.958 9.04z"/>
        <path fill="#0981F3" d="M348.698 203.557c1.265-1.348 13.514-9.953 13.514-9.953L358.296 185l-14.042 3.214 4.444 15.343zM182.904 349.552c-12.42 0-23.844-7.266-29.101-18.513a31.574 31.574 0 0 1-2.41-7.405 32.105 32.105 0 0 1-.591-6.142c0-17.68 14.401-32.064 32.102-32.064 17.702 0 32.103 14.384 32.103 32.064 0 1.912-.17 3.828-.506 5.704l-.085.436c-2.912 15.02-16.164 25.92-31.512 25.92"/>
        <path fill="#004DAB" d="M182.904 281.698c-19.79 0-35.838 16.025-35.838 35.794 0 2.344.227 4.632.66 6.849a35.276 35.276 0 0 0 2.692 8.276c5.707 12.207 18.108 20.666 32.486 20.666 17.449 0 31.983-12.453 35.18-28.942h.003c.43-2.217.656-4.505.656-6.849 0-19.769-16.043-35.794-35.839-35.794m0 7.46c7.578 0 14.702 2.947 20.06 8.299 5.357 5.35 8.308 12.466 8.308 20.035a28.7 28.7 0 0 1-.436 4.984l-.087.447c-2.572 13.268-14.283 22.899-27.845 22.899a28.267 28.267 0 0 1-15.425-4.551 28.418 28.418 0 0 1-10.295-11.816 27.834 27.834 0 0 1-2.123-6.527l-.001-.008-.002-.007a28.361 28.361 0 0 1-.521-5.42c0-7.57 2.951-14.684 8.31-20.036 5.358-5.352 12.48-8.299 20.057-8.299"/>
        <path fill="#00377B" d="M139.96 268.808l-9.813 21.921h-8.346a3.305 3.305 0 0 1-.266-6.599c.307-.023.595-.123.848-.285.252-.16.463-.381.615-.646l5.954-10.494a7.703 7.703 0 0 1 6.697-3.897h4.31z"/>
        <path fill="#004DAB" d="M353.234 235.511l-11.318 29.248a19.68 19.68 0 0 0-.79 11.665l2.104 8.828 15.323-6.912 5.311-36.617-10.63-6.212z"/>
        <path fill="#006CF0" d="M182.905 288.624c-15.938 0-28.905 12.95-28.905 28.866 0 15.918 12.967 28.867 28.905 28.867 15.939 0 28.906-12.95 28.906-28.867 0-15.917-12.967-28.866-28.906-28.866m0 58.505c-16.364 0-29.678-13.296-29.678-29.639 0-16.342 13.314-29.638 29.678-29.638 16.365 0 29.678 13.296 29.678 29.638 0 16.343-13.313 29.639-29.678 29.639M390.125 349.552c-11.059 0-21.202-5.577-27.131-14.918a31.878 31.878 0 0 1-4.971-17.142c0-2.455.279-4.906.83-7.286 1.984-8.53 7.488-15.972 15.098-20.414a32.047 32.047 0 0 1 16.174-4.364c10.27 0 19.673 4.73 25.797 12.978 4.126 5.552 6.306 12.15 6.306 19.086 0 17.678-14.401 32.06-32.103 32.06"/>
        <path fill="#004DAB" d="M390.125 281.698a35.65 35.65 0 0 0-18.06 4.873c-8.382 4.894-14.593 13.087-16.852 22.795a36.01 36.01 0 0 0-.925 8.126 35.543 35.543 0 0 0 5.551 19.138c6.354 10.01 17.544 16.653 30.286 16.653 19.796 0 35.838-16.026 35.838-35.79a35.59 35.59 0 0 0-7.04-21.309c-6.528-8.792-16.996-14.486-28.798-14.486m0 7.46c4.571 0 8.931 1.05 12.958 3.12a28.627 28.627 0 0 1 9.841 8.353c3.643 4.902 5.569 10.732 5.569 16.861 0 7.567-2.95 14.681-8.308 20.032-5.358 5.351-12.482 8.298-20.06 8.298-9.772 0-18.736-4.93-23.98-13.191a28.157 28.157 0 0 1-4.387-15.139c0-2.173.247-4.342.731-6.437 1.755-7.54 6.62-14.116 13.352-18.046a28.307 28.307 0 0 1 14.284-3.85"/>
        <path fill="#D7D4FF" d="M390.126 288.624c-15.938 0-28.905 12.95-28.905 28.866 0 15.918 12.967 28.867 28.905 28.867 15.939 0 28.905-12.95 28.905-28.867 0-15.917-12.966-28.866-28.905-28.866m0 58.505c-16.364 0-29.678-13.296-29.678-29.639 0-16.342 13.314-29.638 29.678-29.638 16.365 0 29.678 13.296 29.678 29.638 0 16.343-13.313 29.639-29.678 29.639"/>
        <path fill="#FFF" d="M402.087 317.49c0 6.597-5.355 11.945-11.96 11.945-6.606 0-11.961-5.348-11.961-11.945s5.355-11.944 11.96-11.944c6.606 0 11.96 5.347 11.96 11.944"/>
        <path fill="#88BEFF" d="M391.337 321.701a5.178 5.178 0 0 1-6.492-3.375L372.431 279l-1.337-4.23-.945-2.997a5.169 5.169 0 0 1 3.38-6.483 5.23 5.23 0 0 1 1.558-.242 5.18 5.18 0 0 1 4.933 3.617l.917 2.902 1.252 3.967 12.527 39.683a5.17 5.17 0 0 1-3.38 6.483M380.463 186.157l-2.89 9.956c-.603 2.081-2.071 3.75-3.97 4.68-.36.177-.736.326-1.123.447a7.89 7.89 0 0 1-2.383.366h-8.542c-2.713 0-5.235-1.374-6.641-3.625l-1.533-2.452a12.508 12.508 0 0 1-1.594-3.859c-.843-3.674.015-7.602 2.504-10.671l1.252-1.544c1.473-1.816 3.72-2.873 6.102-2.873h11.342c5.15 0 8.87 4.767 7.476 9.575"/>
        <path fill="#3D238C" d="M382.19 275.535c-3.924.592-7.67 2.344-9.759 3.465l-1.337-4.23 6.288-4.594s1.654.602 3.555 1.392l1.252 3.967z"/>
        <path fill="#88BEFF" d="M392.65 256.732l-1.767 16.127s-17.872-1.29-33.154 14.23l-23.645 30.632a17.02 17.02 0 0 1-13.475 6.617h-199.64a3.88 3.88 0 0 1-3.883-3.877v-.283c0-2.125 1.835-4.317 3.962-4.343.915-.007 1.525-.01 1.525-.91v-.016c-.01-1.554.052-4.145.426-7.496 1.473-13.3 7.83-38.626 33.87-59.133h114.247c2.82 0 3.966 3.628 1.65 5.236-3.304 2.295-7.189 5.292-10.919 8.883-8.547 8.23-16.273 19.59-14.284 32.79 0 0 .74 6.466 5.31 12.224a22.148 22.148 0 0 0 5.378 4.9c2.522 1.634 5.631 2.91 9.456 3.522h45.215a17.028 17.028 0 0 0 13.936-7.242l26.595-37.923a27.082 27.082 0 0 0 3.476-24.286l-19.666-57.858 10.881-2.328 23.069 58.033a17.876 17.876 0 0 0 14.279 11.12l5.139.679c.002 0 .01 0 .015.005a5.21 5.21 0 0 1 1.863.615l.141.082z"/>
        <path fill="#00377B" d="M418.923 296.184c-6.179-.488-19.791-.329-30.529 8.638-7.878 6.583-11.496 14.994-13.156 21.244a13.678 13.678 0 0 1-11.52 10.077l-3.879.488a35.543 35.543 0 0 1-5.551-19.139c0-2.796.321-5.516.925-8.126l1.588-2.51c4.182-9.55 10.059-16.037 15.265-20.285a35.65 35.65 0 0 1 18.06-4.873c11.801 0 22.269 5.694 28.797 14.486"/>
        <path fill="#006CF0" d="M247.563 295.19s.74 6.465 5.309 12.223a20.83 20.83 0 0 0 .889 1.054c.324.365.667.726 1.028 1.078.082.082.167.162.252.245.193.185.394.368.6.547.214.19.436.379.662.562a25.626 25.626 0 0 0 .75.584c.126.094.258.187.389.283.26.187.528.37.806.548a97.915 97.915 0 0 1-6.95 3.521h-94.95c-2.677-2.467-4.562-5.29-5.503-8.422a15.535 15.535 0 0 1-.38-1.536c-3.448-17.623 23.227-37.659 59.58-44.751 19.818-3.867 38.42-3.093 51.802 1.273-8.547 8.23-16.273 19.59-14.284 32.79"/>
        <path fill="#88BEFF" d="M335.83 330.622h20.382a13.688 13.688 0 0 0 12.687-8.565c2.426-5.995 7.063-13.892 15.7-19.442 11.924-7.662 25.655-5.986 31.604-4.725a5.698 5.698 0 0 0 5.302-1.635 5.687 5.687 0 0 0-.154-8.017c-5.79-5.623-18.357-14.455-38.12-11.308 0 0-18.331 3.825-30.233 23.772l-19.89 24.168c-1.89 2.295-.254 5.752 2.722 5.752"/>
        <path fill="#003677" d="M156.865 248.28h114.25a21.415 21.415 0 0 0-18.656-10.894h-85.834c-2.05 0-4.084.342-6.021 1.012l-2.22.767c-3.812 1.318-4.781 6.254-1.75 8.911l.231.203z"/>
        <path fill="#006CF0" d="M267.707 315.835H121.048c.915-.007 1.526-.01 1.526-.91v-.016c-.01-1.554.05-4.144.425-7.496h129.873a20.83 20.83 0 0 0 .889 1.054c.324.365.667.726 1.028 1.078.082.082.167.162.252.245.193.185.394.368.6.547.214.19.436.379.662.562.155.128.312.251.474.375.09.072.183.141.276.208.126.098.257.19.389.284.26.187.528.37.806.548 2.522 1.633 5.631 2.909 9.46 3.521"/>
        <path fill="#004DAB" d="M345.718 189.392a.643.643 0 0 1-.624-.805l12.579-48.294a.644.644 0 0 1 1.247.324l-12.58 48.293a.644.644 0 0 1-.622.482"/>
        <path fill="#BCDAFF" d="M359.067 148.56h-4.945a1.584 1.584 0 0 1-1.585-1.583v-1.714c0-.875.71-1.583 1.585-1.583h4.945c.876 0 1.585.708 1.585 1.583v1.714c0 .874-.71 1.583-1.585 1.583"/>
        <path fill="#88BEFF" d="M348.698 131.305v26.187c0 .765.937 1.135 1.46.576l1.267-1.35a6.046 6.046 0 0 0 1.479-2.77l3.348-14.448a7.652 7.652 0 0 0-1.813-6.897 4.56 4.56 0 0 0-3.737-1.463l-2.004.165z"/>
        <path fill="#FFA800" d="M394.847 263.35l-3.963 9.51-5.392-17.508 5.138.678a5.232 5.232 0 0 1 1.878.619l.143.082a5.308 5.308 0 0 1 2.196 6.619"/>
        <path fill="#FFF" d="M338.121 326.196a.875.875 0 1 1-1.75 0 .875.875 0 0 1 1.75 0"/>
        <path fill="#FFADAE" d="M328.197 187.257l8.33-7.126a3.758 3.758 0 0 1 3.197-.826l5.695.851a4.29 4.29 0 0 1 3.633 3.783l.517 4.81-11.237 2.92 2.564 3.174-13.786-2.59 1.087-4.996z"/>
        <path fill="#FFF" d="M360.835 326.196a.875.875 0 1 1-1.75-.001.875.875 0 0 1 1.75.001M126.067 320.17a.875.875 0 1 1-1.75-.002.875.875 0 0 1 1.75.001M148.78 320.17a.875.875 0 1 1-1.75-.001.875.875 0 0 1 1.75 0"/>
        <path fill="#00377B" d="M218.083 324.34c-.572.072-49.617 6.16-67.665 8.277a35.269 35.269 0 0 1-2.692-8.276h70.357z"/>
        <path fill="#FFF" d="M205.64 320.474a7141.298 7141.298 0 0 0-51.327 0l-.003-.771c17.111-.062 34.383-.062 51.333 0l-.002.771zM212.35 320.474v-.771c3.485-.006 6.972-.008 10.458-.007v.772c-3.485 0-6.972.001-10.457.006M289.807 320.59c-9.006 0-17.954-.03-26.766-.061-11.092-.038-22.562-.077-33.895-.055l-.002-.772c11.336-.021 22.807.017 33.9.055 19.146.066 38.943.135 58.558-.116 3.787-.35 7.295-2.564 10.429-6.583a70.751 70.751 0 0 0 1.483-2.354c.962-1.572 1.957-3.197 3.298-4.805 4.937-6.051 9.323-12.09 13.563-17.93 3.262-4.492 6.634-9.136 10.255-13.786.575-.766 1.074-1.661 1.555-2.527.485-.87.985-1.77 1.58-2.572.399-1.182.801-1.986 1.19-2.765 1.067-2.13 1.204-4.768.379-7.243-7.651-24.194-15.142-46.006-22.902-66.688l.724-.27c7.765 20.694 15.26 42.518 22.913 66.72.888 2.661.735 5.515-.42 7.824-.403.805-.783 1.563-1.17 2.725l-.02.06-.038.05c-.58.772-1.078 1.667-1.56 2.534-.495.888-1.006 1.807-1.617 2.621-3.617 4.645-6.986 9.284-10.243 13.77-4.247 5.849-8.639 11.897-13.592 17.968-1.309 1.568-2.288 3.168-3.235 4.716-.48.783-.975 1.593-1.508 2.393l-.017.022c-3.276 4.207-6.974 6.525-10.992 6.89l-.03.001c-10.597.136-21.249.178-31.82.178"/>
        <path fill="#004DAB" d="M349.57 188.749a6.771 6.771 0 0 1-6.776 6.766 6.771 6.771 0 0 1-6.776-6.766 6.771 6.771 0 0 1 6.776-6.767 6.771 6.771 0 0 1 6.775 6.767"/>
        <path fill="#3D238C" d="M378.83 311.868l6.235 7.031-3.218-10.112-3.681 3.014z"/>
        <path fill="#FFF" d="M139.572 303.46c-.005-.15-.112-3.75 1.568-9.078 1.546-4.904 4.972-12.238 12.508-19.336 9.228-8.69 22.407-15.084 39.17-19.003 21.158-4.946 48.069-5.925 79.986-2.912l-.073.769c-31.819-3.005-58.636-2.033-79.708 2.888-16.629 3.884-29.69 10.208-38.822 18.798-14.188 13.346-13.862 27.703-13.857 27.847l-.772.027z"/>
        <path fill="#FCCA22" d="M388.973 260.197l2.446 2.249a1.11 1.11 0 0 0 1.838-.596l.504-2.5a1.108 1.108 0 0 0-1.181-1.323l-2.95.252c-.962.082-1.367 1.266-.657 1.918"/>
        <path fill="#003677" d="M220.873 242.308h-51.54c-4.57 0-8.273-2.461-8.273-5.497s3.704-5.497 8.272-5.497h51.54c4.57 0 8.273 2.46 8.273 5.497 0 3.036-3.704 5.497-8.272 5.497"/>
        <path fill="#FFA800" d="M135.268 268.818l-12.326 21.911H121.8a3.305 3.305 0 0 1-.266-6.599c.307-.023.595-.123.848-.285.252-.16.463-.381.615-.646l5.954-10.494a7.703 7.703 0 0 1 6.316-3.887"/>
        <path fill="#FCCA22" d="M120.112 286.482l1.419 1.305a.643.643 0 0 0 1.066-.346l.294-1.451a.643.643 0 0 0-.686-.767l-1.712.146a.642.642 0 0 0-.381 1.113"/>
        <path fill="#5CA5FF" d="M211.658 285.161h-.036a167.004 167.004 0 0 0-8.698-.021 1.158 1.158 0 0 1-.054-2.315c2.993-.07 6.126-.061 8.823.021a1.158 1.158 0 0 1-.035 2.315M232.23 292.644h-.003l-4.276-.01a1.158 1.158 0 0 1 .003-2.316h.003l4.276.01a1.158 1.158 0 0 1-.003 2.316M223.785 292.624h-.012c-9.564-.097-19.164-.085-26.46-.063h-.003a1.158 1.158 0 0 1-.003-2.316c7.302-.021 16.912-.033 26.49.064a1.159 1.159 0 0 1-.012 2.315M226.644 300.065h-.01c-7.785-.072-15.404-.068-22.477-.054h-.003a1.159 1.159 0 0 1-.002-2.315c7.08-.015 14.707-.018 22.502.053a1.159 1.159 0 0 1-.01 2.316M199.702 300h-.002l-1.959-.003a1492.45 1492.45 0 0 1-6.023-.016 1.159 1.159 0 0 1 .006-2.315h.006c1.994.01 4.07.013 6.014.016l1.96.003a1.159 1.159 0 0 1-.002 2.315"/>
        <path fill="#FFF" d="M374.598 287.9c-17.805 0-34.21-.009-50.153-.025l.001-1.287c25.934.027 53.102.032 85.502.015v1.287c-12.482.006-24.192.01-35.35.01M197.415 261.024v-1.286l18.195-.012v1.286c-6.064.005-12.13.01-18.195.012M156.662 261.037c-17.805 0-34.21-.008-50.153-.025l.001-1.286c25.934.027 53.103.031 85.502.015v1.286c-12.482.006-24.192.01-35.35.01M121.226 268.914c-17.805 0-34.21-.008-50.153-.025l.001-1.286c25.935.027 53.103.031 85.502.015v1.286c-12.481.007-24.192.01-35.35.01M155.035 277.935c-17.753 0-34.132-.007-50.061-.024l.001-1.286c25.97.026 53.14.03 85.502.015v1.286c-12.513.006-24.251.01-35.442.01"/>
        <path fill="#003677" d="M310.24 215.436l11.216 6.957c4.441 2.755 5.723 8.189 2.913 12.354l-45.884 68.015-7.939-4.133 18.455-56.474-63.285-19.934 84.523-6.785z"/>
        <path fill="#006CF0" d="M231.47 206.068s36.677-1.356 71.642 5.82c7.293 1.497 11.986 7.421 10.725 13.606-4.318 21.184-13.447 67.797-12.188 77.268h-10.67s-13.544-42.86-6.157-69.606c0 0-32.192 18.464-62.824 4.23-7.883-3.663-15.767-20.004-9.019-25.48l18.49-5.838z"/>
        <path fill="#001E42" d="M290.978 302.762V315.946h29.568l.413-.804c.879-1.713-.155-3.712-2.271-4.304-2.157-.604-5.237-1.093-9.196-.792l-5.833-1.924-2.917-4.035-9.764-1.325z"/>
        <path fill="#001E42" d="M270.24 298.986l-5.383 6.338c-.554.652-.461 1.543.219 2.106l10.303 8.516h17.84v-4.489s-9.058-2.41-14.662-2.103l-.433-6.592-7.884-3.776z"/>
        <path fill="#479AFF" d="M290.023 298.987l11.414.518c.731.033 1.304.538 1.304 1.15v3.539c0 .74-.823 1.287-1.686 1.123l-10.875-2.079c-.516-.098-.918-.435-1.036-.866l-.54-1.978c-.204-.747.504-1.448 1.419-1.407"/>
        <path fill="#0B4B98" d="M268.997 299.844l9.788 4.133c.609.257 1.351.049 1.65-.463l1.874-3.197c.282-.483.069-1.067-.489-1.335l-10.237-4.924c-.684-.33-1.557-.039-1.782.593l-1.424 3.989c-.17.474.092.981.62 1.204"/>
        <path fill="#003677" d="M295.018 299.337c-2.47-16.605-4.472-40.194.01-58.27 1.775-7.157 4.01-11.223 5.385-13.219l-5.038 1.331a.645.645 0 0 1-.71-.963l3.39-5.415c-.3-.369-3.116-2.546-26.304.814-15.064 2.183-29.41-.278-38.793-2.727-10.165-2.652-16.874-5.87-16.94-5.902l.56-1.158c.066.032 6.686 3.204 16.737 5.824 9.26 2.414 23.413 4.84 38.25 2.69 11.418-1.655 25.462-3.05 27.53-.3.342.453.318.93.195 1.203a.746.746 0 0 1-.04.074l-2.63 4.2 5.34-1.41a.643.643 0 1 1 .61 1.086c-1.278 1.242-4.251 5.847-6.339 14.373-2.413 9.855-4.361 27.844.06 57.58l-1.273.189z"/>
        <path fill="#FFA800" d="M372.479 176.58v24.68c6.729 0 12.184-5.525 12.184-12.34 0-6.815-5.455-12.34-12.184-12.34"/>
        <path fill="#FCCA22" d="M376.345 184.816l2.446 2.248a1.11 1.11 0 0 0 1.838-.595l.504-2.501a1.108 1.108 0 0 0-1.181-1.322l-2.95.252c-.961.082-1.366 1.265-.657 1.918"/>
        <path fill="#0981F3" d="M372.48 191.67v9.57a7.89 7.89 0 0 1-2.383.365h-8.542c-2.712 0-5.234-1.373-6.64-3.624l-1.534-2.452a12.512 12.512 0 0 1-1.594-3.859h20.693z"/>
        <path fill="#514B66" d="M251.546 75.644l18.155-4.47 1.847 11.456-15.601 6.25z"/>
        <path fill="#000" d="M246.705 92.775c-.768 1.73-1.342 3.707-1.485 5.627-.143 1.914.217 3.911 1.54 5.276 1.313 1.377 3.36 1.95 5.36 2.12 2.028.152 4.091-.04 6.125-.362-2.002.485-4.05.85-6.145.865-2.062-.017-4.32-.392-6.036-1.897-.844-.741-1.464-1.735-1.828-2.79-.37-1.057-.512-2.165-.526-3.254-.003-2.196.414-4.278 1.142-6.373l1.853.788z"/>
        <path fill="#FFADAE" d="M266.124 103.231s-2.745 18.905-3.151 18.522c-.406-.384-13.452-7.409-13.452-7.92 0-.51 1.611-14.69 1.611-14.69l11.179-.87 3.813 4.958z"/>
        <path fill="#000" d="M245.685 75.512c-2.837.373-5.393 2.265-6.505 4.814-1.11 2.55-.738 5.665.95 7.929 1.209 1.623 2.982 2.764 4.363 4.254a11.52 11.52 0 0 1 2.84 5.53c.291 1.45.305 2.99 1.014 4.302 1.261 2.337 4.809 3.15 6.978 1.599 1.655-1.183 2.306-3.264 2.682-5.228a34.179 34.179 0 0 0-.509-15.029c-.657-2.513-1.67-5.06-3.65-6.815-1.979-1.756-5.137-2.476-7.366-1.076l-.797-.28z"/>
        <path fill="#FFADAE" d="M284.253 87.183c-.018.166-.057.329-.085.493-.946 4.823-2.95 9.443-5.934 13.395-.924 1.227-1.91 2.433-3.129 3.397-3.03 2.388-9.97 2.82-13.59 1.283-3.243-1.375-5.658-4.249-7.037-7.41-1.379-3.16-1.842-6.617-2.084-10.026-2.895.03-5.455-2.89-4.935-5.638.522-2.758 2.563-4.3 6.603-3.04.13.011.26.013.394.004 8.004.06 14.72-4.328 22.372-5.652 1.354-.232 5.32-1.325 6.292-.236.423.465.651 1.298.847 1.872.476 1.3.72 2.666.824 4.028.128 1.663.06 3.324-.128 4.975a34.63 34.63 0 0 1-.41 2.555"/>
        <path fill="#88BEFF" d="M259.694 118.215s17.215 9.47 11.854 30.345c-6.787 26.428-20.197-22.45-11.854-30.345"/>
        <path fill="#FFADAE" d="M284.847 81.039c-3.92.127-8.324-1.057-13.446-3.022a22.796 22.796 0 0 0-4.195-1.19c3.147-1.109 6.302-2.257 9.622-2.838 1.354-.232 5.32-1.325 6.292-.236.423.465.651 1.298.847 1.872.476 1.3.721 2.666.824 4.028.04.462.06.92.056 1.386"/>
        <path fill="#F59293" d="M252.34 88.692c.467 6.435 2.093 14.587 8.87 17.44 2.875 1.211 5.719 1.641 8.711.733 2.567-.78 5.45-1.878 7.27-3.865.338-.37-.22-.934-.56-.561-1.673 1.827-4.353 2.871-6.701 3.608-3.042.954-5.961.504-8.844-.808-6.075-2.767-7.52-10.691-7.944-16.53-.036-.496-.837-.517-.801-.017"/>
        <path fill="#FF9395" d="M284.253 87.183c-5.957-.12-17.743-1.478-23.778-3.358-3.584-1.117-5.257-2.771-6.02-4.184 8.005.06 14.72-4.328 22.373-5.652 1.354-.232 5.32-1.325 6.292-.236.423.465.651 1.298.847 1.872.476 1.3.72 2.666.824 4.028.128 1.663.06 3.324-.128 4.975a34.63 34.63 0 0 1-.41 2.555"/>
        <path fill="#241F3F" d="M280.05 69.572c.688.015.7-1.02.012-1.034-.687-.015-.7 1.02-.012 1.034"/>
        <path fill="#FFF" d="M263.721 95.14l10.284.192c.315.006.539.3.446.59-.517 1.625-2.393 6.069-7.309 5.422-5.116-.673-4.24-4.718-3.873-5.892a.456.456 0 0 1 .452-.313"/>
        <path fill="#000" d="M245.716 90.339s-3.27 13.071 5.701 14.237l-.428-8.158-5.273-6.079zM243.092 78.025c.01.113.021.083.033.1.014.014.019-.002.03-.003.023-.006.035-.028.053-.048a.44.44 0 0 0 .073-.157c.041-.123.035-.26-.005-.421-.095-.31-.402-.689-.873-.955-.461-.279-1.03-.493-1.633-.645-.606-.158-1.241-.243-1.893-.324.599-.25 1.214-.502 1.872-.682a7.662 7.662 0 0 1 2.124-.305 4.52 4.52 0 0 1 2.473.713c.41.278.807.639 1.11 1.092.16.221.289.466.404.726.055.132.11.263.152.413.021.077.044.139.061.232.017.095.037.143.047.335l-4.028-.071zM257.244 78.415c-.244.649-.45 1.447-.607 2.195-.157.763-.276 1.54-.312 2.318-.081 1.55.085 3.17 1.032 4.55-.656-.505-1.195-1.194-1.612-1.954-.425-.761-.694-1.593-.922-2.434a16.865 16.865 0 0 1-.45-2.576c-.084-.882-.138-1.714-.095-2.673l2.966.574z"/>
        <path fill="#000" d="M298.787 70.618c-4.231 7.359-8.849 10.288-14.53 10.456-3.86.113-8.2-1.048-13.25-2.968a22.788 22.788 0 0 0-4.135-1.166c-5.995-1.077-10.2.968-12.55 2.698l-.01-.002c-.13.008-.25.008-.377-.004-1.78-.554-3.171-.558-4.202-.15l-3.7-3.494c3.571-26.333 20.956-14.17 20.956-14.17l5.379-6.76c16.993-18.51 33.508 3.223 26.419 15.56"/>
        <path fill="#88BEFF" d="M214.43 220.165l1.311 1.916s14.403 2.945 41.03-12.345a5.633 5.633 0 0 1 1.806-.662l9.616-1.731-12.5-2.2s-9.53 3.842-10.229 4.104c-.7.262-31.034 10.918-31.034 10.918"/>
        <path fill="#000" d="M246.477 79.354a22.17 22.17 0 0 1-.964-2.439c-.273-.813-.5-1.643-.666-2.486-.168-.84-.28-1.698-.255-2.559.022-.853.164-1.72.551-2.45-.145.814-.017 1.609.198 2.356.215.75.55 1.463.929 2.146.377.684.803 1.342 1.266 1.973.455.62.963 1.262 1.45 1.78l-2.509 1.68z"/>
        <path fill="#FFF" d="M277.749 208.014s-1.203-.198-3.233-.378c-4.106-.368-11.595-.664-19.37.885-3.407.676-6.87 1.71-10.123 3.249-14.351 6.781-29.676 10.271-61.312 8.422a53.416 53.416 0 0 0 5.042-8.69 792.794 792.794 0 0 1 2.488-8.044 596.234 596.234 0 0 1 2.596-8.077c.72-2.743 1.455-5.506 2.222-8.275 7.293-27.391 19.658-58.777 48.508-69.343l2.323-8.91 14.657 6.056-2.065 17.356 6.193 6.707 5.729 32.755 6.345 36.287z"/>
        <path fill="#88BEFF" d="M274.516 207.636c-4.106-.368-11.595-.664-19.37.885-1.05-4.256-1.215-10.805 2.677-19.601 7.466-16.874 0-57.794 0-57.794l8.06 4.872.051 4.457 5.47 31.272-.288 4.855 3.4 31.054z"/>
        <path fill="#ECECEC" d="M257.823 188.92c-1.177 2.66-1.983 5.114-2.504 7.363-35.165-22.292-10.732-61.332-10.732-61.332l16.446 25.935c.389 10.411-.186 21.196-3.21 28.034"/>
        <path fill="#D7D4FF" d="M244.59 135.196c-.822 1.376-6.134 10.62-7.697 22.087-.99 7.261-.305 13.98 2.036 19.97 2.907 7.438 8.393 13.77 16.306 18.824.551-2.325 1.382-4.75 2.47-7.21 2.595-5.865 3.671-15.266 3.2-27.942l-16.315-25.73zm10.814 61.293l-.154-.098c-8.045-5.1-13.617-11.508-16.563-19.049-2.357-6.032-3.046-12.795-2.048-20.102 1.697-12.43 7.778-22.259 7.84-22.357l.108-.173 16.573 26.136.002.035c.475 12.732-.608 22.183-3.22 28.09-1.11 2.508-1.95 4.977-2.497 7.34l-.041.178z"/>
        <path fill="#88BEFF" d="M274.516 207.636c-4.106-.368-11.595-.664-19.37.885-.734-2.97-1.035-7.054.173-12.238a57.652 57.652 0 0 0 2.504 1.505c8.292 4.7 13.344 5.955 16.165 5.024l.528 4.824z"/>
        <path fill="#FFF" d="M281.334 167.414l-15.296-39.381s-2.929-9.464-16.923-6.716c-7.738 1.52-6.628 13.098-5.93 18.742 1.226 9.926 4.015 19.766 9.485 28.228 4.659 7.205 11.801 17.68 21.019 18.882l54.508 7.11v-8.646l-46.863-18.22z"/>
        <path fill="#B5D6FF" d="M321.454 186.198c0 .019-4.446 6.621-4.446 6.621l6.428.848-1.982-7.47z"/>
        <path fill="#D7D4FF" d="M317.231 192.719l6.031.795-1.86-7.008c-.34.523-1.325 1.986-4.17 6.213zm6.38 1.1l-6.826-.9.116-.172a2053.17 2053.17 0 0 0 4.424-6.586v-.95l2.285 8.608z"/>
        <path fill="#FF9395" d="M339.727 114.096l-.777 1.891a1.324 1.324 0 0 0 .714 1.724l.035.015c.631.264.848 1.05.441 1.6a.733.733 0 0 0 .167 1.035l1.069.754c.39.276.666.684.776 1.149l.472 1.992s-2.247-2.128-5.859-1.865l-.817-2.182a3.31 3.31 0 0 1-.077-2.092l.83-2.834 3.026-1.187z"/>
        <path fill="#D7D4FF" d="M325.857 131.125l3.325 9.622 5.403-7.117z"/>
        <path fill="#D7D4FF" d="M326.059 131.317l3.166 9.16 5.144-6.775-8.31-2.385zm3.08 9.7l-3.485-10.084 9.147 2.625-5.662 7.46z"/>
        <path fill="#FFF" d="M321.872 182.66l.241-.202c.346-.29.829-.357 1.24-.17l5.271 2.386c.435.197.708.638.688 1.115l-.363 8.855a1.174 1.174 0 0 1-1.598 1.044l-5.148-1.999a1.172 1.172 0 0 1-.75-1.092v-9.04c0-.345.154-.674.42-.897M321.237 126.58v-.348c-.002-.501.29-.894.748-1.01l5.868-1.49c.484-.124 1.062.086 1.46.53l7.384 8.226c.67.747.54 1.79-.253 2.045l-5.445 1.755c-.477.154-1.066-.032-1.484-.468l-7.806-8.143c-.299-.311-.472-.713-.472-1.097"/>
        <path fill="#000" d="M255.154 77.937c1.275-.524 2.42-.812 3.668-1.05 1.23-.216 2.482-.336 3.745-.297 2.511.084 5.1.758 7.202 2.222l.781.545.649.482c.443.309.906.6 1.383.875a21.373 21.373 0 0 0 3.007 1.418 22.842 22.842 0 0 0 6.512 1.48 21.19 21.19 0 0 0 3.35-.054c1.107-.138 2.212-.34 3.28-.683 2.136-.673 4.133-1.807 5.852-3.288 3.445-3.004 5.689-7.219 7.202-11.57-1.279 4.424-3.282 8.802-6.692 12.127a17.63 17.63 0 0 1-5.992 3.8c-1.121.428-2.291.71-3.473.922a22.58 22.58 0 0 1-3.59.254 24.528 24.528 0 0 1-7.08-1.21 23.306 23.306 0 0 1-3.355-1.367 20.984 20.984 0 0 1-1.605-.897l-.776-.514-.67-.41c-1.78-1.105-3.892-1.529-5.996-1.492-1.057.024-2.117.185-3.157.427-1.018.242-2.111.604-2.96 1.01l-.057.027a1.512 1.512 0 0 1-2.016-.708 1.509 1.509 0 0 1 .788-2.05"/>
        <path fill="#FFF" d="M371.577 202.082h1.803v-25.501h-1.803z"/>
        <path fill="#FFF" fill-opacity=".3" d="M193.561 186.198c0 13.228-10.737 23.951-23.983 23.951-13.245 0-23.983-10.723-23.983-23.951s10.738-23.951 23.983-23.951c13.246 0 23.983 10.723 23.983 23.95"/>
        <path fill="#FFF" d="M165.24 198.07h8.676v-23.744h-8.676z"/>
        <path fill="#FFF" d="M157.69 190.53h23.776v-8.664H157.69z"/>
        <path fill="#DE9200" d="M174.302 198.456h-5.53v-.772h4.758v-7.54h7.936v.772h-7.164z"/>
        <path fill="#B1B2B5" d="M249.096 121.256c1.155-.443 2.365-.718 3.593-.902 1.23-.169 2.486-.232 3.741-.123 1.258.092 2.51.378 3.71.839a11.213 11.213 0 0 1 3.281 2.03c.47.447.921.918 1.31 1.436l.291.388c.095.13.175.265.263.398.176.266.345.533.499.805.634 1.08 1.181 2.188 1.698 3.307 1.026 2.24 1.957 4.507 2.86 6.784 1.805 4.552 3.472 9.15 5.089 13.763 1.591 4.622 3.145 9.256 4.607 13.92l-.122.04a697.102 697.102 0 0 0-5.09-13.74c-1.736-4.564-3.521-9.109-5.437-13.591-.963-2.238-1.961-4.462-3.056-6.624a51.411 51.411 0 0 0-1.705-3.18c-.6-1.032-1.256-1.968-2.086-2.765a10.22 10.22 0 0 0-2.848-1.927c-1.057-.483-2.199-.799-3.37-.985a18.407 18.407 0 0 0-3.582-.19 21.675 21.675 0 0 0-3.607.439l-.04-.122zM242.83 131.128c.045 3.571.409 7.135.978 10.652.562 3.52 1.35 7 2.383 10.4.529 1.696 1.099 3.379 1.766 5.022.662 1.644 1.326 3.285 2.056 4.898 1.41 3.254 3.105 6.368 4.907 9.474l-.103.076a61.03 61.03 0 0 1-.877-1.028l-.431-.522-.41-.537-.806-1.088c-.257-.37-.502-.75-.755-1.124l-.376-.565-.35-.58-.697-1.163-.646-1.192c-.22-.396-.423-.8-.622-1.205-.814-1.616-1.489-3.298-2.086-5.003l-.428-1.285-.397-1.294c-.137-.43-.258-.864-.38-1.298-.118-.435-.25-.866-.356-1.305a78.934 78.934 0 0 1-2.03-10.592 78.717 78.717 0 0 1-.442-5.367c-.087-1.792-.117-3.586-.027-5.379l.13.005z"/>
        <path fill="#004DAB" d="M321.39 188.749c-.098-1.162-.164-2.324-.245-3.486a194.946 194.946 0 0 1-.188-3.486.482.482 0 0 1 .642-.475l.042.015c.607.216 1.22.418 1.837.613.616.195 1.221.418 1.806.691.585.272 1.16.567 1.723.896.563.325 1.116.677 1.641 1.097l-.048.12a12.958 12.958 0 0 1-1.944-.352 20.211 20.211 0 0 1-1.861-.553c-.611-.21-1.201-.469-1.78-.757a54.283 54.283 0 0 0-1.748-.835l.684-.46a192.572 192.572 0 0 1-.188 3.486c-.081 1.162-.147 2.324-.245 3.486h-.128z"/>
    </g>
</svg>
